<svg width="66" height="65" viewBox="0 0 66 65" fill="none" xmlns="http://www.w3.org/2000/svg">
<path d="M34.8334 19.2662L21.8001 26.0662L20.6667 33.4329L38.8 59.4996L42.2 59.4996L59.2 45.3329L60.9 30.0329L59.7667 27.1996L34.8334 19.2662Z" fill="#CCC5F1"/>
<path d="M52.3532 22.4509L48.1033 20.2196C44.3718 18.2625 42.506 17.2829 40.5 17.2829C38.494 17.2829 36.6282 18.2604 32.8967 20.2196L32.2146 20.5788L51.176 31.4141L59.71 27.1429C58.3373 25.5874 56.123 24.425 52.3532 22.4466M61.2145 29.9564L52.7188 34.2064V40.6579C52.7188 41.0806 52.5508 41.486 52.252 41.7849C51.9531 42.0837 51.5477 42.2517 51.125 42.2517C50.7023 42.2517 50.2969 42.0837 49.998 41.7849C49.6992 41.486 49.5312 41.0806 49.5312 40.6579V35.8001L42.0938 39.5189V59.5789C43.6195 59.1985 45.3556 58.289 48.1033 56.8462L52.3532 54.6149C56.9241 52.2158 59.2106 51.0173 60.4814 48.8604C61.75 46.7057 61.75 44.0218 61.75 38.6604V38.4118C61.75 34.3891 61.75 31.8732 61.2145 29.9564ZM38.9062 59.5789V39.5189L19.7855 29.9564C19.25 31.8732 19.25 34.3891 19.25 38.4075V38.6561C19.25 44.0218 19.25 46.7057 20.5186 48.8604C21.7894 51.0173 24.0759 52.2179 28.6467 54.617L32.8967 56.8462C35.6444 58.289 37.3805 59.1985 38.9062 59.5789ZM21.29 27.145L40.5 36.75L47.7484 33.1269L28.8656 22.3361L28.6467 22.4509C24.8791 24.4271 22.6628 25.5895 21.29 27.1471" fill="white"/>
<g clip-path="url(#clip0_7_1360)">
<path d="M15.7191 16.3081C16.8613 12.4321 17.4316 10.4942 18.8665 10.1701C20.3013 9.84602 21.6492 11.3506 24.3465 14.3595L25.0447 15.1381C25.8112 15.9937 26.1945 16.4215 26.6916 16.6484C27.1888 16.8753 27.7461 16.8752 28.8608 16.8751L29.8737 16.8756C33.7917 16.8777 35.749 16.8783 36.5149 18.2038C37.2791 19.5281 36.3451 21.3013 34.4753 24.8464L33.9912 25.7632C33.4606 26.77 33.194 27.2745 33.1496 27.8324C33.1055 28.3917 33.2874 28.943 33.6508 30.0442L33.9824 31.0474C35.2614 34.926 35.9015 36.8643 34.9397 38.0068C33.9779 39.1493 32.0511 38.7405 28.2004 37.9222L27.202 37.7114C26.1078 37.4776 25.561 37.3623 25.0352 37.481C24.5095 37.5998 24.0653 37.939 23.1778 38.6204L22.3685 39.2395C19.2418 41.6337 17.6777 42.831 16.3201 42.214C14.9588 41.5947 14.7036 39.5694 14.1913 35.5176L14.06 34.4708C13.9144 33.3188 13.8417 32.7429 13.5603 32.2586C13.2816 31.7722 12.824 31.4312 11.9125 30.7517L11.0811 30.1305C7.86937 27.7347 6.26393 26.5351 6.38432 25.0094C6.5047 23.4837 8.27439 22.6397 11.8114 20.9554L12.7258 20.5195C13.7308 20.0409 14.2326 19.8018 14.5854 19.3829C14.9383 18.964 15.099 18.4133 15.4234 17.3113L15.7191 16.3081Z" fill="#8A76F3"/>
</g>
<g clip-path="url(#clip1_7_1360)">
<path d="M33.6724 4.85665C34.077 3.45009 34.279 2.74687 34.7979 2.62612C35.3169 2.50537 35.8086 3.04716 36.7926 4.13061L37.0473 4.411C37.3269 4.7191 37.4668 4.87314 37.6474 4.95416C37.8279 5.03518 38.0298 5.03384 38.4335 5.03116L38.8004 5.02897C40.2195 5.02053 40.9284 5.01615 41.2089 5.49444C41.4888 5.97231 41.1547 6.61673 40.4858 7.90516L40.3126 8.23832C40.1228 8.60424 40.0274 8.7876 40.0126 8.98975C39.998 9.19245 40.0651 9.39171 40.1993 9.78968L40.3218 10.1522C40.7942 11.554 41.0305 12.2546 40.6849 12.6707C40.3392 13.0867 39.6403 12.9432 38.2437 12.6558L37.8816 12.5818C37.4848 12.4997 37.2864 12.4592 37.0963 12.5035C36.9061 12.5477 36.7461 12.6716 36.4262 12.9205L36.1345 13.1466C35.0077 14.0211 34.444 14.4585 33.9509 14.2382C33.4563 14.0171 33.3592 13.2841 33.1641 11.8178L33.1141 11.4389C33.0587 11.022 33.031 10.8136 32.9279 10.6389C32.8258 10.4633 32.6593 10.3409 32.3276 10.0969L32.025 9.87391C30.8561 9.0137 30.2718 8.58299 30.3118 8.0301C30.3518 7.47722 30.9908 7.16737 32.2679 6.54902L32.5981 6.38901C32.961 6.2133 33.1422 6.12551 33.269 5.97296C33.3958 5.82041 33.4527 5.62059 33.5676 5.22069L33.6724 4.85665Z" fill="#8A76F3"/>
</g>
<defs>
<clipPath id="clip0_7_1360">
<rect width="37.2801" height="37.2801" fill="white" transform="translate(0 11.2465) rotate(-12.7279)"/>
</clipPath>
<clipPath id="clip1_7_1360">
<rect width="13.5029" height="13.5029" fill="white" transform="translate(27.9672 3.06024) rotate(-13.0991)"/>
</clipPath>
</defs>
</svg>
